<svg width="512" height="512" viewBox="0 0 512 512" xmlns="http://www.w3.org/2000/svg">
  <defs>
    <!-- Gradient for the main circle -->
    <radialGradient id="mainGradient" cx="0.3" cy="0.3" r="0.8">
      <stop offset="0%" style="stop-color:#4F46E5;stop-opacity:1" />
      <stop offset="100%" style="stop-color:#1E1B4B;stop-opacity:1" />
    </radialGradient>
    
    <!-- Gradient for the play button -->
    <linearGradient id="playGradient" x1="0%" y1="0%" x2="100%" y2="100%">
      <stop offset="0%" style="stop-color:#FFFFFF;stop-opacity:1" />
      <stop offset="100%" style="stop-color:#E5E7EB;stop-opacity:1" />
    </linearGradient>
    
    <!-- Shadow filter -->
    <filter id="shadow" x="-50%" y="-50%" width="200%" height="200%">
      <feDropShadow dx="0" dy="8" stdDeviation="16" flood-color="#000000" flood-opacity="0.25"/>
    </filter>
    
    <!-- Inner shadow for depth -->
    <filter id="innerShadow" x="-50%" y="-50%" width="200%" height="200%">
      <feOffset dx="0" dy="2"/>
      <feGaussianBlur stdDeviation="4" result="offset-blur"/>
      <feFlood flood-color="#000000" flood-opacity="0.2"/>
      <feComposite in2="offset-blur" operator="in"/>
      <feComposite in2="SourceGraphic" operator="over"/>
    </filter>
  </defs>
  
  <!-- Background circle with gradient -->
  <circle cx="256" cy="256" r="240" fill="url(#mainGradient)" filter="url(#shadow)"/>
  
  <!-- Inner ring for depth -->
  <circle cx="256" cy="256" r="220" fill="none" stroke="#6366F1" stroke-width="2" opacity="0.3"/>
  
  <!-- Film strip decorative elements -->
  <rect x="80" y="180" width="352" height="152" rx="12" fill="#1F2937" opacity="0.2"/>
  <rect x="90" y="190" width="20" height="20" rx="2" fill="#374151" opacity="0.4"/>
  <rect x="120" y="190" width="20" height="20" rx="2" fill="#374151" opacity="0.4"/>
  <rect x="150" y="190" width="20" height="20" rx="2" fill="#374151" opacity="0.4"/>
  <rect x="342" y="190" width="20" height="20" rx="2" fill="#374151" opacity="0.4"/>
  <rect x="372" y="190" width="20" height="20" rx="2" fill="#374151" opacity="0.4"/>
  <rect x="402" y="190" width="20" height="20" rx="2" fill="#374151" opacity="0.4"/>
  
  <rect x="90" y="302" width="20" height="20" rx="2" fill="#374151" opacity="0.4"/>
  <rect x="120" y="302" width="20" height="20" rx="2" fill="#374151" opacity="0.4"/>
  <rect x="150" y="302" width="20" height="20" rx="2" fill="#374151" opacity="0.4"/>
  <rect x="342" y="302" width="20" height="20" rx="2" fill="#374151" opacity="0.4"/>
  <rect x="372" y="302" width="20" height="20" rx="2" fill="#374151" opacity="0.4"/>
  <rect x="402" y="302" width="20" height="20" rx="2" fill="#374151" opacity="0.4"/>
  
  <!-- Main play button circle -->
  <circle cx="256" cy="256" r="80" fill="#FFFFFF" filter="url(#innerShadow)" opacity="0.95"/>
  <circle cx="256" cy="256" r="75" fill="none" stroke="#E5E7EB" stroke-width="1"/>
  
  <!-- Play triangle -->
  <path d="M 230 220 L 230 292 L 290 256 Z" fill="url(#playGradient)" stroke="#D1D5DB" stroke-width="1"/>
  
  <!-- Subtle highlight on play button -->
  <ellipse cx="240" cy="240" rx="15" ry="8" fill="#FFFFFF" opacity="0.3"/>
  
  <!-- Outer glow effect -->
  <circle cx="256" cy="256" r="245" fill="none" stroke="#8B5CF6" stroke-width="1" opacity="0.2"/>
</svg>
